<svg width="12" height="12" viewBox="0 0 12 12" fill="none" xmlns="http://www.w3.org/2000/svg">
<path d="M4.41835 1.10285C4.48396 1.17902 4.52415 1.27212 4.53376 1.37019C4.54336 1.46827 4.52195 1.56684 4.47226 1.65324C4.08244 2.33407 3.87896 3.09736 3.88058 3.87274C3.88058 6.45211 6.0896 8.54075 8.81211 8.54075C9.16793 8.54032 9.51229 8.50611 9.84519 8.43812C9.94703 8.41738 10.053 8.42553 10.15 8.46156C10.2471 8.49759 10.3309 8.55992 10.391 8.64082C10.4547 8.72502 10.4872 8.82696 10.4834 8.93064C10.4796 9.03432 10.4398 9.13387 10.3702 9.21366C9.84157 9.83164 9.1748 10.3296 8.41842 10.6711C7.66204 11.0127 6.83513 11.1893 5.99795 11.1881C2.89131 11.1881 0.375 8.80568 0.375 5.87029C0.375 3.66105 1.79961 1.76614 3.82802 0.963011C3.92902 0.922149 4.04126 0.913694 4.14776 0.938922C4.25426 0.964151 4.34924 1.02169 4.41835 1.10285ZM3.64876 1.7655C2.86885 2.1638 2.21686 2.75577 1.76205 3.47852C1.30725 4.20127 1.06662 5.0278 1.06574 5.87029C1.06574 8.44902 3.27543 10.5377 5.99795 10.5377C6.64988 10.5386 7.29553 10.4165 7.89759 10.1785C8.49965 9.94041 9.04617 9.59113 9.50555 9.15079C9.27822 9.17774 9.04708 9.19121 8.81211 9.19121C5.70548 9.19121 3.18984 6.80877 3.18984 3.87338C3.18984 3.12478 3.35292 2.4121 3.64876 1.7655Z" fill="black"/>
<path d="M7.64901 2.94369C7.65867 2.91592 7.67728 2.89174 7.70221 2.87461C7.72713 2.85747 7.75709 2.84825 7.78783 2.84825C7.81857 2.84825 7.84853 2.85747 7.87345 2.87461C7.89837 2.89174 7.91699 2.91592 7.92665 2.94369L8.18745 3.68909C8.30403 4.02137 8.57763 4.28181 8.9267 4.39279L9.70977 4.64104C9.73895 4.65024 9.76434 4.66795 9.78234 4.69168C9.80034 4.7154 9.81003 4.74392 9.81003 4.77318C9.81003 4.80244 9.80034 4.83096 9.78234 4.85468C9.76434 4.87841 9.73895 4.89613 9.70977 4.90532L8.9267 5.15358C8.75444 5.208 8.59791 5.29995 8.46956 5.42212C8.34122 5.54429 8.24462 5.6933 8.18745 5.85727L7.92665 6.60267C7.91699 6.63045 7.89837 6.65462 7.87345 6.67175C7.84853 6.68889 7.81857 6.69811 7.78783 6.69811C7.75709 6.69811 7.72713 6.68889 7.70221 6.67175C7.67728 6.65462 7.65867 6.63045 7.64901 6.60267L7.38821 5.85727C7.33104 5.6933 7.23444 5.54429 7.10609 5.42212C6.97775 5.29995 6.82122 5.208 6.64895 5.15358L5.86589 4.90532C5.83671 4.89613 5.81131 4.87841 5.79331 4.85468C5.77531 4.83096 5.76562 4.80244 5.76562 4.77318C5.76562 4.74392 5.77531 4.7154 5.79331 4.69168C5.81131 4.66795 5.83671 4.65024 5.86589 4.64104L6.64895 4.39279C6.82122 4.33836 6.97775 4.24641 7.10609 4.12424C7.23444 4.00207 7.33104 3.85307 7.38821 3.68909L7.64901 2.94369ZM9.71718 0.987838C9.72383 0.969573 9.7363 0.953735 9.75284 0.942526C9.76939 0.931316 9.78919 0.925293 9.8095 0.925293C9.82981 0.925293 9.84961 0.931316 9.86616 0.942526C9.88271 0.953735 9.89517 0.969573 9.90182 0.987838L10.0757 1.48434C10.1532 1.70629 10.3358 1.88013 10.569 1.9539L11.0906 2.1194C11.1098 2.12573 11.1264 2.1376 11.1382 2.15335C11.1499 2.1691 11.1563 2.18795 11.1563 2.20728C11.1563 2.22661 11.1499 2.24547 11.1382 2.26122C11.1264 2.27697 11.1098 2.28883 11.0906 2.29516L10.569 2.46066C10.4542 2.49723 10.3499 2.55867 10.2643 2.64016C10.1787 2.72164 10.1141 2.82094 10.0757 2.93022L9.90182 3.42673C9.89517 3.44499 9.88271 3.46083 9.86616 3.47204C9.84961 3.48325 9.82981 3.48927 9.8095 3.48927C9.78919 3.48927 9.76939 3.48325 9.75284 3.47204C9.7363 3.46083 9.72383 3.44499 9.71718 3.42673L9.54331 2.93022C9.5049 2.82094 9.44035 2.72164 9.35475 2.64016C9.26915 2.55867 9.16483 2.49723 9.05003 2.46066L8.52843 2.29516C8.50925 2.28883 8.49261 2.27697 8.48083 2.26122C8.46906 2.24547 8.46273 2.22661 8.46273 2.20728C8.46273 2.18795 8.46906 2.1691 8.48083 2.15335C8.49261 2.1376 8.50925 2.12573 8.52843 2.1194L9.05003 1.9539C9.28319 1.88013 9.46582 1.70629 9.54331 1.48434L9.71718 0.987838Z" fill="black"/>
</svg>
